<svg width="0" height="0" class="hidden">
    <symbol id="arrow" fill="none" xmlns="http://www.w3.org/2000/svg" viewBox="0 0 22 22">
        <path d="M21 4.29346V20.952H4.37326M20.9618 21L1 1" stroke-width="2"></path>
    </symbol>


    <symbol id="phone_logo" fill="none" xmlns="http://www.w3.org/2000/svg" viewBox="0 0 41 41">
        <circle cx="20.2303" cy="20.2303" r="19.7303" stroke="white"></circle>
        <g clip-path="url(#clip0_1_54)">
            <path d="M27.329 23.492C26.228 23.492 25.147 23.3198 24.1226 22.9813C23.6119 22.8071 23.0304 22.9423 22.6972 23.2818L20.6753 24.8082C18.3304 23.5565 16.886 22.1125 15.6514 19.7852L17.1328 17.816C17.5177 17.4316 17.6558 16.8701 17.4904 16.3433C17.1504 15.3135 16.9777 14.233 16.9777 13.1316C16.9777 12.3359 16.3304 11.6886 15.5348 11.6886H12.2323C11.4368 11.6886 10.7894 12.3359 10.7894 13.1315C10.7894 22.2516 18.209 29.6711 27.329 29.6711C28.1246 29.6711 28.7719 29.0237 28.7719 28.2281V24.9349C28.7719 24.1393 28.1246 23.492 27.329 23.492ZM27.7729 28.2281C27.7729 28.473 27.5738 28.672 27.329 28.672C18.7597 28.672 11.7885 21.7008 11.7885 13.1316C11.7885 12.8867 11.9875 12.6877 12.2324 12.6877H15.5348C15.7797 12.6877 15.9787 12.8867 15.9787 13.1316C15.9787 14.3398 16.1685 15.5257 16.5397 16.6491C16.5914 16.815 16.5494 16.9867 16.3816 17.1614L14.6646 19.4354C14.5494 19.5881 14.5314 19.7925 14.6177 19.9627C16.0192 22.7174 17.7221 24.4203 20.4963 25.8418C20.665 25.93 20.8719 25.9116 21.0251 25.7959L23.3514 24.0335C23.4689 23.916 23.6451 23.874 23.8041 23.9281C24.9353 24.3018 26.1212 24.4911 27.329 24.4911C27.5738 24.4911 27.7729 24.6901 27.7729 24.935V28.2281Z"
                  fill="white"></path>
        </g>
        <defs>
            <clipPath id="clip0_1_54">
                <rect width="17.9825" height="17.9825" fill="white" transform="translate(10.7894 11.6886)"></rect>
            </clipPath>
        </defs>
    </symbol>


    <symbol id="cross" width="33" height="33" viewBox="0 0 33 33" xmlns="http://www.w3.org/2000/svg">
        <line x1="1.70711" y1="1.69853" x2="32.1127" y2="32.1041" stroke="white" stroke-opacity="0.8" stroke-width="2"/>
        <line x1="1.29289" y1="31.6984" x2="31.6985" y2="1.29282" stroke="white" stroke-opacity="0.8" stroke-width="2"/>
    </symbol>

    <symbol id="mobile_menu" width="41" height="41" viewBox="0 0 41 41" fill="none" xmlns="http://www.w3.org/2000/svg">
        <circle cx="20.2303" cy="20.2303" r="19.7303" stroke="white"/>
        <g opacity="0.8">
            <path d="M11.5937 13.0611H29.4063C29.734 13.0611 30 12.5994 30 12.0306C30 11.4616 29.734 11 29.4063 11H11.5937C11.266 11 11 11.4617 11 12.0306C11 12.5994 11.266 13.0611 11.5937 13.0611Z"
                  fill="white"/>
            <path d="M29.4063 19.061H11.5937C11.266 19.061 11 19.5228 11 20.0916C11 20.6604 11.266 21.1221 11.5937 21.1221H29.4063C29.734 21.1221 30 20.6604 30 20.0916C30 19.5228 29.734 19.061 29.4063 19.061Z"
                  fill="white"/>
            <path d="M29.4063 27.1221H11.5937C11.266 27.1221 11 27.5838 11 28.1526C11 28.7214 11.266 29.1832 11.5937 29.1832H29.4063C29.734 29.1832 30 28.7214 30 28.1526C30 27.5838 29.734 27.1221 29.4063 27.1221Z"
                  fill="white"/>
        </g>
    </symbol>
</svg>